<?xml version="1.0" encoding="utf-8" ?><svg xmlns="http://www.w3.org/2000/svg" xmlns:xlink="http://www.w3.org/1999/xlink" width="1024" height="1024" viewBox="0 0 1024 1024"><path fill="#FCFCFB" d="M0 0L1024 0L1024 1024L0 1024L0 0Z"/><path fill="#102749" d="M356.125 64.2129C374.428 63.4504 402.119 67.1456 419.289 74.8705C453.156 90.1075 485.471 110.398 518.662 126.838C608.05 171.114 595.534 284.48 567.706 363.048C561.876 379.51 554.42 395.684 547.66 411.706C562.179 395.339 577.569 379.765 593.763 365.054C636.339 325.762 685.705 285.306 745.531 279.009C780.142 275.366 807.381 285.544 838.798 297.502C855.24 316.669 871.144 336.799 887.422 356.253L954.433 436.493C960.553 443.941 987.216 475.301 989.617 482.583C989.21 484.897 986.74 487.951 984.268 487.344C921.731 471.976 864.179 497.755 817.886 538.935C765.992 585.098 719.479 637.326 672.867 688.829L570.51 799.792C533.634 840.291 497.89 883.493 454.285 917.075C430.333 935.521 409.531 945.93 380.805 954.116C366.115 957.737 351.011 959.404 335.885 959.073C282.404 957.9 231.365 933.166 190.572 899.17C183.962 893.661 174.769 882.425 169.213 875.828L151.488 855.17C135.352 836.367 119.032 817.615 102.957 798.781C85.074 777.829 66.3661 753.718 47.4907 733.974C82.3185 756.715 124.091 771.807 166.173 766.881C222.333 760.306 263.445 728.892 304.02 692.338C344.062 656.265 373.586 620.392 406.925 578.914C363.475 611.883 314.936 644.256 258.709 648.343C246.15 649.256 229.973 648.052 218.077 644.329C212.357 642.539 204.232 638.178 198.673 635.363C187.549 629.704 176.471 623.953 165.442 618.11L115.845 592.269C109.119 588.726 100.876 584.731 94.428 580.929C90.0273 578.32 85.8972 575.28 82.0989 571.854C52.0565 545.186 37.1916 502.362 35.1544 463.016C26.7089 299.907 185.636 74.3432 356.125 64.2129Z"/><path fill="#FCFCFB" d="M464.232 132.206C528.008 127.069 568.512 176.61 573.48 236.247C580.824 324.409 534.476 425.699 479.659 492.443C433.366 548.808 338.111 625.194 263.503 632.293C239.878 635.629 208.496 629.057 190.418 612.89C150.834 577.49 149.35 514.192 157.671 465.667C171.085 387.441 209.832 316.09 261.203 256.328C309.919 199.39 386.686 137.717 464.232 132.206Z"/><path fill="#102749" d="M380.267 298.637C363.279 306.112 341.894 310.738 332.292 288.389C325.738 273.134 332.335 252.884 338.491 238.738C351.307 210.641 374.971 184.009 404.168 172.571C419.373 166.614 439.064 165.951 445.604 184.531C452.845 205.106 440.475 228.117 431.868 246.492C440.571 244.2 444.394 243.713 451.436 250.185C466.807 231.469 488.756 209.913 513.986 207.31C532.805 205.369 545.947 218.851 546.66 236.971C547.686 263.024 532.062 291.327 514.96 310.125C508.953 316.825 502.422 323.037 495.43 328.702C495.501 332.031 495.508 335.603 495.66 338.906C516.357 338.238 529.033 349.289 528.783 370.639C528.438 400.145 509.582 431.277 489.229 451.587C476.953 463.751 459.489 476.578 441.522 476.588C422.14 476.6 413.971 460.019 414.564 442.827C415.133 426.344 421.071 412.695 427.725 398.027C410.99 401.203 395.039 425.281 389.563 440.231C398.026 442.099 405.076 444.04 410.034 452.108C417.657 464.512 416.804 480.847 413.474 494.514C405.577 525.71 381.646 552.949 355.093 570.286C345.21 576.738 326.875 584.003 315.097 580.489C292.942 573.88 296.542 545.927 300.219 528.749C296.764 527.094 295.115 526.38 291.224 525.579C274.367 548.64 252.482 574.071 223.072 579.905C205.569 583.377 194.247 570.936 193.124 554.629C190.492 516.427 214.908 482.46 241.337 457.985C238.96 450.941 239.383 439.806 240.132 432.456C232.145 432.818 225.024 432.603 218.733 426.824C210.073 418.87 209.719 403.932 211.513 393.211C216.185 365.292 231.215 340.317 250.659 320.159C266.417 303.626 305.849 277.509 323.606 305.231L329.555 301.915C338.04 307.575 345.064 312.862 355.964 310.464C363.936 308.71 373.621 303.831 380.774 299.711L380.267 298.637Z"/><path fill="#D5DDE6" d="M398.265 286.26L398.018 287.662C392.238 292.115 387.111 296.034 380.774 299.711L380.267 298.637C386.69 295.164 392.724 291.014 398.265 286.26Z"/><path fill="#015171" d="M398.265 286.26C401.381 283.154 405.815 278.661 409.531 276.355L408.984 276.78L408.977 277.226C406.05 280.37 401.48 285.119 398.018 287.662L398.265 286.26Z"/><path fill="#FCFCFB" d="M383.257 446.594C388.316 446.378 393.869 447.014 398.149 449.76C420.804 464.294 408.46 501.818 397.804 519.245C383.197 543.133 359.097 567.446 331.92 574.371C318.212 577.385 306.593 571.775 303.966 557.303C300.077 535.874 310.792 512.302 321.859 494.475C334.883 473.497 358.573 451.937 383.257 446.594Z"/><path fill="#015171" d="M378.557 457.633C382.485 457.207 386.45 457.969 389.94 459.822C409.224 470.241 396.835 505.083 388.275 518.681C375.975 538.221 357.801 557.275 334.872 563.255C285.845 572.393 323.937 467.172 378.557 457.633Z"/><path fill="#FCFCFB" d="M516.743 213.212C532.376 213.639 540.195 224.203 540.862 238.923C542.624 277.776 497.998 336.042 458.313 338.183C399.121 333.412 455.839 216.855 516.743 213.212Z"/><path fill="#015171" d="M508.945 224.144C554.374 219.777 520.834 315.186 466.095 326.555C416.937 329.869 453.872 234.167 508.945 224.144Z"/><path fill="#FCFCFB" d="M280.768 445.184C335.894 442.378 283.723 565.685 221.989 573.829C209.086 575.572 200.019 565.484 198.68 553.295C194.137 511.932 239.58 449.75 280.768 445.184Z"/><path fill="#015171" d="M275.311 456.161C284.993 455.019 292.305 460.066 293.597 469.849C297.123 496.542 277.803 526.696 259.074 544.145C249.972 552.625 238.281 560.171 226.117 562.429C215.487 563.115 208.619 556.33 207.553 545.862C204.067 511.631 240.685 460.818 275.311 456.161Z"/><path fill="#FCFCFB" d="M295.713 299.618C309.453 298.117 318.838 304.07 321.535 317.738C325.942 340.063 313.237 364.489 301.405 382.641C289.005 401.663 265.611 420.772 243.115 425.421C230.579 426.914 218.998 423.557 217.092 409.255C211.452 366.939 254.484 307.319 295.713 299.618Z"/><path fill="#015171" d="M293.677 309.681C338.446 309.828 298.025 404.22 245.929 414.514C197.274 415.873 244.34 314.287 293.677 309.681Z"/><path fill="#FCFCFB" d="M493.673 344.595C506.914 343.294 519.793 349.275 522.153 363.763C528.413 402.178 487.479 462.563 449.292 469.911C435.596 471.892 424.085 466.293 421.339 451.797C417.18 429.841 428.682 405.013 440.108 386.773C451.204 369.06 472.757 349.062 493.673 344.595Z"/><path fill="#015171" d="M493.332 355.673C496.41 355.476 501.741 356.827 504.041 358.757C522.415 374.178 506.063 409.286 495.865 423.87C485.002 439.405 468.726 454.142 450.732 457.532C424.759 457.32 427.856 429.208 434.75 412.407C445.033 387.345 464.764 359.799 493.332 355.673Z"/><path fill="#FCFCFB" d="M415.707 174.588C420.651 173.879 428.866 174.477 432.545 177.543C454.923 196.184 431.277 239.199 419.139 256.572C405.254 276.448 386.206 294.372 363.066 298.514C350.312 299.145 339.236 295.775 336.342 281.584C332.37 262.103 342.334 240.264 352.344 224.099C367.21 200.093 387.672 181.112 415.707 174.588Z"/><path fill="#015171" d="M409.959 184.655C458.014 181.179 417.354 275.878 367.486 286.963C355.787 288.859 347.047 283.802 345.442 271.69C341.022 238.33 377.381 189.745 409.959 184.655Z"/><path fill="#FCFCFB" d="M397.039 317.22C411.817 315.723 419.891 331.462 420.381 344.277C421.852 382.741 380.212 435.942 340.87 437.111C336.4 436.995 329.451 435.007 326.254 432.075C304.231 411.875 326.986 368.58 341.223 351.526C356.099 333.707 374.696 319.406 397.039 317.22Z"/><path fill="#FCFCFB" d="M367.013 435.119L367.221 435.516C365.902 437.538 358.825 449.006 357.807 449.88C343.655 462.023 329.562 473.612 319.221 489.486C317.82 491.637 313.609 500.184 311.942 501.62C306.305 506.476 302.07 509.679 297.049 515.396C297.786 513.166 298.552 511.398 299.466 509.25C307.688 490.902 313.593 471.719 306.53 452.201C311.672 447.284 317.662 442.971 323.37 438.714C338.557 446.109 352.689 443.306 367.013 435.119Z"/><path fill="#FCFCFB" d="M422.403 263.137C428.189 265.834 433.239 268.224 439.228 270.443C432.559 283.28 425.08 302.353 427.993 317.097C425.621 319.251 423.154 321.725 420.832 323.967C417.886 319.146 415.86 317.036 411.153 314.277C402.168 310.588 397.169 310.988 387.929 312.821L385.121 303.844C402.259 292.579 412.447 280.684 422.403 263.137Z"/><path fill="#FCFCFB" d="M300.548 392.278C304.372 393.915 309.137 395.232 313.24 396.809C309.647 411.087 310.224 418.239 316.512 431.202C314.483 432.754 312.572 433.965 310.436 435.341C300.55 433.795 291.136 434.793 281.495 437.317C276.68 439.093 271.849 440.824 267.001 442.508C266.948 435.943 266.728 427.956 267.648 421.585C272.949 417.623 278.226 414.187 283.363 409.886C289.926 404.391 294.929 398.644 300.548 392.278Z"/><path fill="#FCFCFB" d="M426.981 341.187C442.726 352.221 452.111 348.856 469.374 343.866C464.721 356.528 440.14 372.149 433.853 386.793C433.315 388.048 430.482 392.652 429.612 393.15C421.021 386.106 404.088 407.929 397.441 411.164C415.573 388.099 426.196 371.602 426.981 341.187Z"/><path fill="#FCFCFB" d="M378.564 306.937L379.12 307.01C379.742 308.288 380.285 313.102 380.528 314.778C350.258 328.614 334.459 347.517 319.942 376.859C317.443 375.842 314.197 376 312.922 373.957L313.865 371.793C326.041 348.49 330.499 336.917 326.186 310.776L327.037 310.241C330.962 311.412 335.452 316.688 339.245 317.518C353.57 320.654 367.053 313.586 378.564 306.937Z"/><path fill="#FCFCFB" d="M396.426 412.95L396.897 413.69C391.354 423.234 387.115 431.649 381.892 441.034C377.866 442.072 373.864 443.2 369.888 444.415C369.488 444.007 369.733 444.319 369.504 443.29C372.732 434.005 388.392 419.231 396.426 412.95Z"/><path fill="#FCFCFB" d="M258.88 426.527C259.325 427.186 259.565 443.233 259.717 445.752C257.547 447.39 255.174 448.875 252.892 450.367C251.78 443.67 251.395 436.873 251.744 430.093C253.916 428.707 256.52 427.616 258.88 426.527Z"/><path fill="#FCFCFB" d="M433.556 251.465C435.853 251.41 447.96 253.562 446.076 257.959C445.574 259.131 444.472 260.457 443.255 261.042C438.463 258.959 432.103 256.42 427.736 253.792L433.556 251.465Z"/><path fill="#FCFCFB" d="M318.303 434.397L318.711 434.829C318.513 436.131 305.59 446.876 303.636 448.442C300.77 445.304 299.208 444.296 295.613 442.388C293.314 441.509 290.798 440.882 288.416 440.22C295.65 439.807 302.908 440.278 310.029 441.621C312.371 440.069 315.68 436.529 318.303 434.397Z"/><path fill="#FCFCFB" d="M487.984 334.478L488.408 334.936C487.837 337.182 487.756 337.71 487.724 340.042L487.72 340.599C484.305 342.68 477.681 345.06 472.722 347.933L472.204 347.904C472.256 346.279 473.85 343.768 474.697 342.136C479.175 339.669 483.604 337.116 487.984 334.478Z"/><path fill="#FCFCFB" d="M308.288 381.376C310.81 381.799 314.581 382.971 317.164 383.694C316.277 386.2 315.294 388.622 314.307 391.088C310.623 388.666 308.619 387.795 304.537 385.985C305.779 384.132 306.812 383.032 308.288 381.376Z"/><path fill="#FCFCFB" d="M449.354 343.079C442.651 342.092 427.783 337.779 430.874 328.445L431.319 328.383C435.566 336.223 441.355 339.988 449.689 342.507L449.354 343.079Z"/><path fill="#FCFCFB" d="M307.383 509.537L307.651 510.042C306.814 511.794 305.266 515.739 303.835 516.611C302.964 515.777 302.953 515.824 302.401 514.767C302.839 513.409 302.853 513.332 303.958 512.413L307.383 509.537Z"/><path fill="#015171" d="M449.689 342.507C451.25 342.611 456.488 342.761 457.505 343.566C455.352 344.699 451.514 343.992 449.354 343.079L449.689 342.507Z"/><path fill="#FCFCFB" d="M597.473 428.895C599.588 430.758 610.201 446.985 612.395 450.209C642.74 494.819 671.305 540.977 701.696 585.509C695.584 591.667 689.529 599.038 683.479 605.413C660.902 629.204 639.471 654.143 617.626 678.616L572.287 728.916C565.191 736.745 557.605 744.398 550.823 752.452C549.808 753.627 549.821 753.766 548.494 754.504C545.729 753.459 456.264 617.014 447.714 604.356C457.87 589.524 473.505 570.626 484.77 556.571C509.349 525.62 534.997 495.533 561.669 466.366C573.378 453.594 585.477 441.388 597.473 428.895Z"/><path fill="#102749" d="M594.892 509.818C601.051 512.437 607.93 509.756 613.706 512.511C619.985 515.506 638.664 540.674 640.667 546.147C640.609 547.692 640.357 548.342 639.39 549.555C632.78 557.839 622.413 541.564 618.311 536.863C622.887 547.771 659.186 601.721 658.842 606.419C658.737 607.852 657.613 609.54 656.678 610.569C655.541 611.821 653.773 613.131 651.975 612.949C647.973 612.543 630.735 584.835 626.689 580.244C626.551 580.088 626.41 579.935 626.271 579.781C628.972 586.172 645.993 614.676 645.618 619.23C645.459 621.151 644.446 622.964 643.003 624.228C641.839 625.248 639.783 626.182 638.219 625.729C634.133 624.545 602.17 566.678 595.492 557.865C597.051 562.207 599.809 567.24 601.701 571.954C599.426 573.098 599.027 572.842 597.814 574.652C598.619 577.948 599.091 580.757 595.527 582.426C589.064 582.282 577.299 567.762 571.322 562.365C576.571 570.461 583.618 578.342 589.574 586.057C598.8 598.05 607.702 610.29 616.27 622.761C617.257 624.273 618.644 626.073 619.008 627.86C619.388 629.722 618.812 632.145 617.76 633.711C616.903 634.987 615.593 635.963 614.025 636.113C605.772 636.901 591.376 606.853 584.913 601.106C584.133 600.412 584.025 600.449 582.941 600.471C581.683 604.565 605.244 632.609 605.75 640.709C605.849 642.29 605.362 643.538 604.269 644.699C603.062 645.982 600.912 646.754 599.178 646.658C597.829 646.584 597.037 645.753 596.208 644.795C590.667 638.387 586.009 630.941 581.145 624.01C573.736 613.449 565.548 602.409 556.832 592.905C558.61 596.902 567.656 610.482 566.942 613.855C566.643 615.268 565.247 616.591 563.985 617.183C562.668 617.8 561.098 617.844 559.792 617.17C555.332 614.865 536.464 581.097 535.181 575.604C533.649 569.05 538.125 562.588 541.302 557.237C542.613 559.029 545.235 560.656 546.978 562.737C551.004 567.544 555.145 572.213 559.722 576.51C560.485 574.949 561.157 573.938 562.102 572.471C560.668 567.194 552.64 549.552 554.837 545.768C555.94 545.032 556.476 544.987 557.753 545.091C574.899 546.477 577.571 552.068 587.889 563.756C583.636 552.814 574.833 541.679 577.967 528.884C578.589 526.345 579.213 524.821 581.402 523.483C588.754 522.6 590.534 535.444 596.771 537.969C598.838 538.806 599.24 540.293 601.047 540.909C601.643 540.063 604.262 536.509 603.932 535.592C600.438 525.898 596.091 520.352 594.892 509.818Z"/><path fill="#102749" d="M522.305 598.26C522.368 598.288 522.431 598.315 522.494 598.344C527.167 600.493 532.866 598.067 538.302 600.753C542.955 603.053 567.401 624.809 568.326 629.452C568.558 630.619 567.999 632.002 567.294 632.903C566.435 634.002 565.56 634.342 564.193 634.388C558.764 634.571 546.355 621.041 542.08 616.972C549.734 630.59 587.866 678.118 589.49 686.728C589.796 688.351 589.227 689.956 588.218 691.22C587.264 692.416 586.095 693.375 584.484 693.4C577.425 693.509 561.907 668.823 556.774 663.26L556.229 662.675C559.706 670.27 568.197 682.973 572.904 690.436C575.282 694.303 580.659 700.987 576.41 704.744C572.599 708.439 568.939 707.291 565.934 703.075C551.128 682.297 535.989 661.225 521.305 640.392C523.351 646.136 531.732 661.996 529.258 667.102C528.687 668.28 527.587 669.032 526.339 669.364C525.216 669.663 523.929 669.509 522.987 668.8C519.446 666.134 503.961 631.978 503.576 626.741C503.234 622.079 507.666 616.812 510.453 613.364C513.956 616.565 525.63 629.815 527.633 630.557C529.217 629.939 530.093 630.098 531.509 629.04C531.802 624.528 524.177 613.273 523.187 609.106C522.1 604.526 524.801 605.644 522.305 598.26Z"/><path fill="#102749" d="M502.741 575.079C515.257 573.185 519.91 587.907 522.144 597.352C520.199 595.366 519.063 593.737 516.5 592.927C513.046 593.842 514.727 597.61 511.247 603.142L510.841 603.774L511.202 604.176L510.855 604.496C509.312 604.749 508.301 605.647 506.878 606.542C504.554 606.499 502.215 606.607 499.89 606.682C483.657 595.506 484.925 583.01 502.741 575.079Z"/><path fill="#102749" d="M535.827 523.542C550.942 522.746 555.189 540.591 550.015 543.846C547.288 541.824 541.18 545.691 538.341 547.117L538.539 547.605C539.557 550.177 540.019 551.024 538.944 553.486C538.163 554.169 536.15 556.019 535.241 556.193C529.298 557.336 524.873 550.303 523.306 545.811C519.697 535.467 526.067 526.721 535.827 523.542Z"/><path fill="#102749" d="M580.984 484.653C592.049 485.685 596.871 501.412 591.668 505.729C590.689 504.546 590.612 504.235 589.189 503.655L587.841 504.227C584.536 508.09 590.362 509.748 580.973 514.156C580.438 515.274 580.946 517.15 581.135 518.611C579.578 518.428 575.108 516.223 573.818 515.309C560.066 505.571 563.71 486.788 580.984 484.653Z"/><path fill="#FCFCFB" d="M684.347 355.076C686.314 356.721 694.975 369.813 697.186 372.983C710.015 391.23 722.674 409.595 735.161 428.077C751.73 452.36 769.193 476.304 785.701 500.649C770.378 514.799 755.469 529.392 740.993 544.409L725.228 561.022C722.256 564.189 718.587 568.427 715.35 571.171L714.504 571.072C706.684 558.935 696.661 544.875 688.509 532.744L631.033 446.192C624.572 436.329 617.453 426.527 611.282 416.522C616.869 410.463 624.117 404.166 630.28 398.606C647.352 382.953 665.411 368.413 684.347 355.076Z"/><path fill="#FCFCFB" d="M112.565 259.423C129.166 266.535 149.146 278.434 165.348 287.04C174.787 292.053 186.558 298.005 195.584 303.356C168.975 348.193 149.621 391.22 138.599 442.637C136.095 454.314 135.27 464.862 133.182 476.306L132.698 476.611C128.956 476.756 64.6627 441.107 51.6644 437.269C51.657 426.994 53.6324 411.676 55.4717 401.544C64.5554 351.506 85.4315 302.269 112.565 259.423Z"/><path fill="#FCFCFB" d="M435.679 619.834C437.141 620.504 526.419 752.871 536.267 768.419C515.146 791.124 491.405 816.485 469.335 837.996L468.868 838.322C466.904 837.827 463.726 832.692 462.383 830.747C454.399 819.175 446.235 807.716 438.318 796.1C422.783 773.186 407.12 750.36 391.329 727.623C384.504 717.74 376.823 705.854 369.779 696.36C372.638 692.897 377.58 687.92 380.771 684.472C386.981 677.715 393.136 670.907 399.235 664.049C410.977 650.844 424.607 633.711 435.679 619.834Z"/><path fill="#FCFCFB" d="M361.614 705.353C363.374 706.054 453.167 835.965 460.261 846.549C436.087 870.722 414.689 887.184 384.812 903.054L383.717 903.42C381.454 902.44 365.693 879.845 362.881 875.984C340.961 846.275 319.272 816.395 297.818 786.348C293.996 780.909 290.179 774.887 286.606 769.258C311.404 753.162 340.365 726.088 361.614 705.353Z"/><path fill="#FCFCFB" d="M250.483 116.384C252.49 116.41 260.252 121.385 262.563 122.601C286.151 135.016 309.718 147.719 333.69 159.347C326.58 165.112 317.879 170.825 310.338 176.351C273.672 203.223 242.292 237.437 216.171 274.515C214.676 276.637 210.833 282.753 208.892 283.699C199.812 280.026 189.358 273.699 180.436 269.287C161.872 260.107 143.251 250.149 124.573 241.285C128.256 233.103 137.612 222.146 143.34 214.902C174.146 175.952 208.399 142.97 250.483 116.384Z"/><path fill="#FCFCFB" d="M771.638 315.699C775.39 317.179 798.842 349.272 803.571 355.354L878.098 451.931C845.387 460.742 826.432 471.462 798.601 490.647L794.256 493.277C786.1 480.879 776.931 468.524 768.562 456.191C744.142 420.207 718.161 384.982 693.646 349.135C719.202 333.18 741.614 321.144 771.638 315.699Z"/><path fill="#FCFCFB" d="M276.214 776.44C277.031 776.849 315.606 830.884 320.07 837.068L372.058 908.739C342.443 919.846 320.162 925.131 288.197 922.48C281.11 912.935 268.257 898.325 260.404 888.799L191.172 805.279C198.139 804.019 205.296 803.243 212.212 801.796C236.663 796.678 254.933 789.185 276.214 776.44Z"/><path fill="#FCFCFB" d="M786.45 314.762C801.642 313.888 825.104 318.048 839.274 323.308C847.951 326.529 860.535 345.586 867.077 353.485L905.263 399.666C917.349 414.077 929.817 428.114 941.319 443.033C942.954 445.154 944.724 446.816 945.755 449.337L945.359 450.002L943.382 449.776C923.216 447.023 908.838 445.408 888.169 449.138C879.467 436.595 867.839 421.87 858.483 409.755L801.836 336.708C799.532 333.743 785.464 316.964 785.349 315.04L786.45 314.762Z"/><path fill="#FCFCFB" d="M352.943 79.7083C370.077 77.577 398.482 81.7225 414.44 88.2926C420.761 90.8954 430.18 96.0212 436.551 99.3295C447.121 104.83 457.743 110.231 468.414 115.532C438.382 111.94 407.294 122.754 379.877 133.794C371.532 137.283 363.465 141.566 355.473 145.781C351.912 143.37 347.354 141.14 343.491 139.199C327.431 131.133 311.753 122.364 295.908 113.889C289.091 110.244 281.945 107.155 275.317 103.202C300.491 90.5517 324.903 82.4508 352.943 79.7083Z"/><path fill="#FCFCFB" d="M51.3398 459.472C56.352 461.02 71.4563 469.452 77.0106 472.254L111.455 489.638C118.229 493.081 125.83 496.711 132.232 500.673C132.706 537.618 135.768 561.911 155.117 594.1C149.362 591.927 138.863 585.405 133.031 582.346C117.666 574.287 104.294 569.897 91.3518 557.809C65.2843 533.463 52.4595 494.565 51.3398 459.472Z"/><path fill="#FCFCFB" d="M132.231 796.047C137.006 797.457 140.059 798.775 145.559 800.223C157.038 803.245 167.637 803.647 178.941 805.577C181.523 808.328 183.805 811.197 186.217 814.091C211.459 844.377 236.631 874.717 261.822 905.044C265.943 910.004 270.48 915.217 274.255 920.405C260.765 918.099 237.555 910.398 225.668 903.523C223.042 902.005 200.071 874.146 196.689 870.263L152.511 819.841C146.439 812.832 137.7 803.216 132.231 796.047Z"/><path fill="#FCFCFB" d="M337.013 677.289C339.553 678.641 348.669 693.511 351.956 697.53C348.726 702.067 337.814 712.126 333.276 716.117L332.343 716.057C329.998 713.929 321.085 699.329 318.626 695.609C322.844 690.521 331.895 682.343 337.013 677.289Z"/><path fill="#FCFCFB" d="M678.307 629.34C682.378 633.135 688.038 643.45 693.093 648.954C688.148 655.176 680.108 663.462 674.55 669.631C671.548 667.374 662.398 654.099 659.739 650.408C665.755 643.235 671.947 636.21 678.307 629.34Z"/><path fill="#FCFCFB" d="M652.497 657.777C654.228 658.57 665.25 674.754 667.183 677.469L648.088 698.667C646.47 697.446 636.289 682.416 633.433 679.264C641.02 671.446 645.721 666.297 652.497 657.777Z"/><path fill="#FCFCFB" d="M386.853 623.277C388.322 624.27 398.988 640.587 400.895 643.339C398.16 648.383 387.896 661.071 383.47 664.657C378.746 659.028 373.671 649.989 369.486 643.469C374.581 637.077 381.419 629.647 386.853 623.277Z"/><path fill="#FCFCFB" d="M780.195 523.411C783.249 526.446 791.555 538.471 795.005 542.849C788.627 549.36 782.175 555.798 775.651 562.163C773.345 561.322 762.953 545.663 760.615 542.418C766.795 536.678 774.808 529.632 780.195 523.411Z"/><path fill="#FCFCFB" d="M410.934 594.827C412.961 596.217 422.772 612.96 424.733 616.146C420.978 621.356 412.406 632.358 407.705 636.144C404.136 632.598 396.419 619.175 393.73 614.365C398.65 608.337 405.676 600.579 410.934 594.827Z"/><path fill="#FCFCFB" d="M433.91 565.799C436.398 566.996 445.756 583.374 447.939 587.024C444.432 593.186 436.804 602.173 432.042 607.616C428.87 605.078 420.173 590.11 417.908 586.066C421.996 579.659 428.748 571.162 433.91 565.799Z"/><path fill="#FCFCFB" d="M458.398 536.234C461.109 537.309 469.798 553.332 471.587 556.435C466.847 563.52 460.734 571.697 455.01 577.88C449.554 572.242 444.615 563.821 441.042 556.867C446.588 551.103 453.204 542.566 458.398 536.234Z"/><path fill="#FCFCFB" d="M362.02 650.759C364.561 651.804 374.437 668.723 376.606 672.246C371.381 677.911 365.001 684.832 359.309 689.871L358.498 689.945C355.528 688.054 346.906 673.819 344.461 670.005C350.427 663.833 356.27 657.165 362.02 650.759Z"/><path fill="#FCFCFB" d="M727.997 575.735C730.591 576.819 739.496 591.231 742.877 595.145C736.655 602.219 731.282 608.005 724.456 614.487C723.281 613.839 712.043 598.119 709.686 595.185C716.046 588.261 721.717 583.286 727.997 575.735Z"/><path fill="#FCFCFB" d="M605.74 370.471C608.923 373.615 618.5 385.705 621.61 389.59C615.55 395.323 608.543 401.354 602.292 406.984L601.807 406.926C598.752 404.102 589.695 392.47 586.66 388.59C592.896 382.422 599.258 376.381 605.74 370.471Z"/><path fill="#FCFCFB" d="M753.344 549.818C756.397 552.074 765.21 564.701 768.442 568.819C764.612 573.675 754.739 582.938 749.962 587.635L749.297 587.851C747.211 586.727 737.309 571.722 735.525 568.828C741.413 562.444 747.353 556.107 753.344 549.818Z"/><path fill="#FCFCFB" d="M552.662 768.459C557.545 774.684 560.903 782.138 565.933 787.686C563.875 790.478 549.646 807.655 547.705 808.294C544.014 804.446 537.034 794.632 533.416 789.916C538.744 783.14 546.664 775.828 552.662 768.459Z"/><path fill="#FCFCFB" d="M527.296 796.322C528.628 797.394 538.378 812.58 540.611 815.622C534.934 822.244 528.212 830.516 521.874 836.239C517.977 831.402 512.355 822.885 508.401 817.466C513.845 811.085 521.364 801.87 527.296 796.322Z"/><path fill="#FCFCFB" d="M602.881 713.819C604.638 714.854 614.658 729.819 616.408 732.478C610.22 739.562 603.992 746.612 597.727 753.628C595.119 750.574 587.036 738.087 584.271 734.055C589.908 727.178 596.691 720.202 602.881 713.819Z"/><path fill="#FCFCFB" d="M703.2 602.384C707.439 607.067 713.442 616.038 717.942 621.5C712.375 628.491 706.464 635.202 700.233 641.609L700.02 641.676C697.611 640.649 687.952 624.978 686.075 621.774C691.657 615.162 697.561 608.948 703.2 602.384Z"/><path fill="#FCFCFB" d="M310.539 701.833C312.884 703.198 322.886 718.559 325.599 722.165C320.807 727.52 312.777 734.337 306.973 738.549C304.689 736.963 294.32 721.824 291.878 718.419C298.183 713.294 304.5 707.337 310.539 701.833Z"/><path fill="#FCFCFB" d="M501.701 823.339C503.464 825.275 512.254 839.536 515.046 843.52L496.693 863.143C492.29 858.126 487.116 848.65 482.677 842.523C489.262 836.374 495.608 829.975 501.701 823.339Z"/><path fill="#FCFCFB" d="M580.074 395.806C581.726 396.677 593.593 411.223 595.639 413.626C589.387 419.684 583.307 426.407 576.89 432.645L576.517 432.717C574.807 431.597 563.435 417.443 561.323 415.019L580.074 395.806Z"/><path fill="#FCFCFB" d="M626.745 686.348C628.653 687.47 637.743 701.774 640.915 705.518C634.793 712.983 629.975 718.341 623.34 725.469L622.913 725.436C621.315 724.221 611.727 709.613 609.637 706.556C614.805 699.615 620.991 692.829 626.745 686.348Z"/><path fill="#FCFCFB" d="M577.807 740.885C582.289 746.582 586.143 754.091 591.188 760.633C584.246 767.465 579.4 773.913 572.896 780.651C571.142 779.49 561.416 765.051 559.109 761.924C565.373 755.666 571.966 747.69 577.807 740.885Z"/><path fill="#FCFCFB" d="M631.052 348.323C632.269 349.015 644.87 364.187 647.852 367.123C642.065 371.319 634.185 378.598 628.827 383.444C626.693 382.659 614.629 367.354 612.183 364.36C618.516 359.562 625.082 353.597 631.052 348.323Z"/><path fill="#FCFCFB" d="M474.999 850.398C476.64 851.638 487.365 866.595 489.441 869.399C483.652 875.546 477.627 881.466 471.38 887.147L470.37 887.259C468.777 885.689 459.221 871.57 456.542 868.018C461.771 862.562 469.335 855.865 474.999 850.398Z"/><path fill="#FCFCFB" d="M284.429 725.333C287.594 726.132 296.401 740.371 299.202 744.048C293.383 749.554 285.836 754.803 278.824 758.652C274.684 754.527 268.525 745.968 263.709 740.663C270.42 735.529 277.612 730.43 284.429 725.333Z"/><path fill="#FCFCFB" d="M529.593 449.307C531.945 450.275 542.524 464.073 544.918 467.091C539.074 473.608 533.27 480.16 527.506 486.748C525.652 486.173 514.41 472.65 512.347 470.171L529.593 449.307Z"/><path fill="#FCFCFB" d="M449.531 873.953C451.453 875.484 461.206 890.3 463.537 893.617C457.937 899.048 450.374 904.539 443.958 909.005C441.875 907.447 431.357 892.573 429.662 889.762C437.295 884.644 442.619 879.872 449.531 873.953Z"/><path fill="#FCFCFB" d="M554.132 422.362C558.093 426.107 566.012 435.75 569.779 440.09C563.137 447.052 558.57 451.125 551.898 458.882C550.455 458.629 538.685 443.68 536.763 441.327C540.961 435.835 549.04 428.009 554.132 422.362Z"/><path fill="#FCFCFB" d="M506.795 478.785C508.892 480.565 517.177 491.424 520.716 495.013C514.499 502.385 507.866 509.89 502.429 517.831L501.424 518.619C498.879 516.923 491.453 503.155 489.695 499.876C496.263 492.423 501.178 486.97 506.795 478.785Z"/><path fill="#FCFCFB" d="M482.447 509.301C484.241 510.414 493.157 524.227 494.78 526.792C490.771 532.726 483.004 543.018 478.368 548.167C478.327 548.165 478.284 548.171 478.244 548.16C475.676 547.42 467.897 531.663 466.122 528.236L482.447 509.301Z"/><path fill="#FCFCFB" d="M805.672 502.401C807.837 504.498 815.901 516.423 819.832 520.74C818.209 522.652 804.089 535.139 801.866 536.719C796.986 531.28 791.449 524.215 786.795 518.459C790.848 514.28 800.823 506.275 805.672 502.401Z"/><path fill="#FCFCFB" d="M656.262 329.343C657.79 329.801 670.209 345.038 672.722 347.854C666.719 352.593 660.124 357.32 653.977 361.989C653.396 361.455 650.194 357.388 649.465 356.503C645.656 351.865 641.817 347.25 637.949 342.66C644.272 338.625 650.317 333.909 656.262 329.343Z"/><path fill="#FCFCFB" d="M683.777 312.458C685.538 312.808 695.724 326.655 698.987 329.756C693.396 333.962 685.129 339.134 679.117 343.154C673.496 336.882 669.829 330.903 663.416 324.72C669.729 320.277 677.044 316.276 683.777 312.458Z"/><path fill="#FCFCFB" d="M256.771 745.473C259.119 747.145 269.337 760.691 271.636 763.645C265.536 767.878 258.164 771.709 251.522 775.057C249.659 773.928 238.393 760.057 236.432 757.568C243.177 753.011 249.655 749.361 256.771 745.473Z"/><path fill="#FCFCFB" d="M421.628 895.88C423.92 895.843 434.306 912.101 436.104 914.899C431.012 918.765 422.966 923.028 417.186 926.382C414.454 923.836 405.465 911.763 402.689 908.134C408.08 904.269 415.896 899.571 421.628 895.88Z"/><path fill="#FCFCFB" d="M829.725 485.402C834.079 486.272 841.213 497.949 846.517 502.624C840.816 505.858 834.836 511.237 828.537 515.082L827.273 515.241C824.074 513.904 815.091 501.233 812.423 497.672C816.733 494.101 824.884 488.793 829.725 485.402Z"/><path fill="#FCFCFB" d="M857.816 470.968C860.384 471.121 870.782 484.82 873.294 487.673C867.216 490.84 860.15 495.216 854.203 498.721L853.283 499.004C851.188 498.294 840.924 484.207 838.989 481.515C845.496 477.473 850.866 474.218 857.816 470.968Z"/><path fill="#FCFCFB" d="M709.391 300.053L710.951 300.003C714.666 302.491 722.43 312.867 725.676 316.967C719.204 319.953 713.114 322.8 706.776 326.053L705.974 326.26C704.212 325.558 693.227 311.262 691.093 308.584C695.89 305.371 703.838 301.734 709.391 300.053Z"/><path fill="#FCFCFB" d="M228.988 760.486C231.367 762.648 241.082 776.363 242.587 779.286C235.993 782.334 229.592 784.361 222.72 786.637C217.898 781.507 212.714 775.226 207.787 769.835C215.214 766.82 221.704 763.885 228.988 760.486Z"/><path fill="#FCFCFB" d="M395.055 912.02C396.806 913.337 407.083 928.391 408.584 930.892C401.823 933.256 394.948 936.092 388.113 938.074C386.661 937.071 376.924 923.968 374.824 921.397C381.586 918.311 388.33 915.185 395.055 912.02Z"/><path fill="#FCFCFB" d="M885.256 462.068L886.46 461.972C888.764 463.013 898.793 476.013 900.665 478.677C893.947 480.499 888.215 481.908 881.704 484.438L880.305 484.525C878.28 483.281 868.28 470.34 866.336 467.896C871.755 465.697 879.629 463.473 885.256 462.068Z"/><path fill="#FCFCFB" d="M737.993 292.179C738.185 292.143 738.374 292.075 738.57 292.071C741.076 292.026 750.382 304.824 752.546 307.471C744.855 309.182 740.422 310.739 733.164 313.498C729.698 310.58 722.205 300.99 718.45 297.018C725.41 294.693 730.695 293.421 737.993 292.179Z"/><path fill="#FCFCFB" d="M199.204 772.06C201.185 772.477 212.38 786.128 214.034 788.65C207.636 790.559 201.094 791.942 194.471 792.784C193.235 791.962 181.429 779.239 179.36 777.072C186.155 775.579 192.484 773.876 199.204 772.06Z"/><path fill="#FCFCFB" d="M367.4 925.171C368.386 926.027 378.304 939.233 379.804 941.187C373.657 942.715 366.866 944.05 360.644 945.363C359.124 945.512 349.967 932.62 348.452 930.62C354.616 928.312 360.952 926.49 367.4 925.171Z"/><path fill="#FCFCFB" d="M907.843 458.294C911.38 457.856 912.248 457.77 914.888 460.342C919.25 464.591 923.229 469.514 927.213 474.123C921.99 474.98 916.787 475.959 911.61 477.059L909.787 477.298C907.202 476.168 896.276 462.681 894.521 459.888C899.083 459.212 903.272 458.751 907.843 458.294Z"/><path fill="#FCFCFB" d="M758.303 289.708C761.321 289.558 764.721 289.563 767.773 289.496C771.25 293.131 776.574 299.966 779.95 304.037C776.705 304.39 773.114 304.54 769.846 304.709C766.611 304.957 763.086 305.507 759.845 305.949C757.096 301.831 751.016 294.609 747.79 290.601C750.965 290.067 755.022 289.918 758.303 289.708Z"/><path fill="#FCFCFB" d="M163.331 778.25C165.398 778.028 168.011 777.987 170.132 777.892C173.551 780.698 181.779 789.566 185.507 793.245L172.41 792.953L164.193 792.396C159.91 787.803 155.445 783.504 150.955 779.116C154.333 778.593 159.715 778.474 163.331 778.25Z"/><path fill="#FCFCFB" d="M340.078 932.749L340.439 932.752C341.483 933.52 349.36 944.119 350.852 945.967C345.306 946.75 337.837 947.296 332.279 947.561C329.771 945.055 323.797 937.527 321.642 934.651C327.364 933.824 334.237 933.309 340.078 932.749Z"/><path fill="#FCFCFB" d="M922.712 458.238C928.488 457.706 935.703 458.599 941.352 459.759C944.27 462.51 950.588 468.75 952.89 471.993L952.485 472.64C946.932 472.515 941.378 472.795 935.866 473.479C933.666 470.698 923.249 460.02 922.712 458.238Z"/><path fill="#FCFCFB" d="M776.587 289.854C781.915 289.942 789.863 291.424 795.267 292.339C798.747 296.878 802.361 301.315 806.101 305.644C799.972 304.819 795.299 304.021 789.098 304.53C784.823 299.728 780.652 294.835 776.587 289.854Z"/><path fill="#FCFCFB" d="M295.578 934.403C301.156 934.439 307.268 934.754 312.883 934.934C316.286 938.37 319.36 942.416 322.162 946.347C316.889 946.394 309.296 945.35 304.168 944.211L295.578 934.403Z"/><path fill="#FCFCFB" d="M123.223 775.974C128.968 776.549 134.891 777.751 141.13 778.372C145.145 782.755 149.229 786.807 153.429 791.005C136.133 789.027 135.331 785.122 123.223 775.974Z"/><path fill="#FCFCFB" d="M804.089 293.924C808.64 295.353 814.477 297.438 819.18 297.592L830.915 311.097C828.695 310.824 817.483 307.483 814.323 306.682L804.089 293.924Z"/><path fill="#FCFCFB" d="M271.68 929.852C276.56 930.693 281.686 931.882 286.55 932.924C289.4 936.421 291.85 938.835 294.628 942.652C294.36 942.635 293.827 942.613 293.464 942.531C281.632 939.858 278.558 939.549 271.68 929.852Z"/><path fill="#FCFCFB" d="M951.728 460.902C954.356 461.115 962.112 463.367 965.039 464.144C968.823 468.003 971.566 470.826 974.985 475.07C971.39 474.699 966.388 473.695 962.925 472.683C960.737 469.656 954.709 464.032 951.728 460.902Z"/><path fill="#FCFCFB" d="M96.6743 767.554C101.965 769.055 109.126 771.14 113.462 774.41C117.098 777.151 119.97 780.172 123.986 782.546C116.104 782.264 101.897 773.554 96.6743 767.554Z"/><path fill="#FCFCFB" d="M246.998 921.845C249.45 922.323 259.96 926.046 262.954 927.004L268.497 935.186C263.563 933.722 254.863 930.508 251.133 927.147C250.853 926.895 247.542 922.542 246.998 921.845Z"/><path fill="#FCFCFB" d="M829.298 301.39C836.502 302.929 843.548 310.127 847.532 316.089C839.404 313.702 835.241 307.362 829.298 301.39Z"/><path fill="#FCFCFB" d="M222.273 911.382C225.702 911.627 232.997 916.091 237.678 917.464L242.392 923.238C237.372 922.057 225.492 915.577 222.273 911.382Z"/><path fill="#FCFCFB" d="M75.1325 757.433C82.1461 759.772 87.7472 765.497 92.6998 770.624C86.527 768.483 79.0176 762.539 75.1325 757.433Z"/><path fill="#FCFCFB" d="M192.764 892.453C196.041 893.295 211.593 904.815 214.44 907.65C208.978 906.718 196.889 896.266 192.764 892.453Z"/></svg>